<?xml version="1.0" encoding="UTF-8"?>
<svg id="_图层_1" data-name="图层 1" xmlns="http://www.w3.org/2000/svg" xmlns:xlink="http://www.w3.org/1999/xlink" viewBox="0 0 640 640">
  <defs>
    <style>
      .cls-1 {
        fill: url(#_未命名的渐变_47);
        stroke-width: 0px;
      }
    </style>
    <linearGradient id="_未命名的渐变_47" data-name="未命名的渐变 47" x1="64" y1="320" x2="576" y2="320" gradientUnits="userSpaceOnUse">
      <stop offset="0" stop-color="#e0c3fc"/>
      <stop offset=".2" stop-color="#e0c3fc"/>
      <stop offset=".6" stop-color="#8ec5fc"/>
      <stop offset="1" stop-color="#8ec5fc"/>
    </linearGradient>
  </defs>
  <path class="cls-1" d="M409.83,352.81c6.64,15.88-2.22,55.07-8.87,69.16-15.03,31.84-46.21,53.65-81.68,64.43v27.25c57.79-14.88,104.88-53.03,116.36-114.9,3.71-19.98,2.65-43.58-1.6-62.17-7.44-32.52-28.57-58.61-57.23-75.09-13.62-7.83-33.33-14.19-51.27-14.79-2.11-.07-4.19-.09-6.26-.06v26.24c16.42-.16,33,4.14,48.06,13.37,15.81,9.69,19.92,17.2,30.93,30.87.45,3.59-1.84,8.25-5.38,13.02-17.75,23.96-45.45,36.94-73.61,36.87v26.01c22.05.27,44.18-5.39,62.57-17.43,5.8-3.8,10.04-6.72,14.67-10.55,4.59-3.79,9.93-10.27,13.31-12.22h0ZM319.28,90.22v-26.22c62.91-.23,126.27,22.28,176.05,69.32,17.38,16.43,16.88,18.32,31.12,35.6,55.61,67.48,63.36,182.84,28.51,261.86-22.36,50.7-62.58,90.25-122.06,119.25-36.52,17.81-75.36,26.14-113.61,25.96v-25.98c64.63.16,125.18-27.41,167.98-72.07,65-67.82,87.28-186.72,28.36-263.19-10.91-14.08-23.3-24.65-36.69-34.38-45.53-33.12-107.56-42.75-159.65-26.84v-27.04c20.28-5.41,41.45-7.71,61.97-6.83,47.48,2.05,59.04,15,80.36,19.62-21.33-21.39-74.62-43.26-115.12-47.67-9.16-1-18.24-1.44-27.22-1.39ZM319.28,486.39c-27.51,8.36-57.59,10.09-84.7,4.71-41.86-8.29-79.67-30.73-103.35-57.62-29.45-33.43-42.83-65.11-41.74-119.71,2.5-125.36,106.17-222.86,229.8-223.56v-26.22c-87.17.33-173.46,44.34-221.55,127.39-17.43,30.1-28.42,62.07-32.81,99.52-1.88,16.04-.99,55.11,3.68,83.81,4.58,28.21,21.02,60.37,36.11,84.07,47.3,74.28,129.49,116.81,214.57,117.21v-25.98c-27.56-.07-55.86-5.17-83.85-16.14-25.16-9.86-37.69-20.17-57.71-32.69,7.4-.93,49.71,25.11,111.2,18.05,10.35-1.19,20.5-3.05,30.35-5.59v-27.25h0ZM319.28,126.49v27.04c-19.83,6.05-38.23,15.8-53.71,29.37-29.43,25.78-39.54,55.95-36.51,103.68,4.89-5.25,27.2-22.45,41.99-29.21,14.71-6.73,30.74-10.49,48.23-10.73v26.24c-17.06.16-33.94,5.13-48.77,14.38-21.73,13.56-26.29,24.5-30.28,30.98,1.83,11.73,23.29,29.79,30.17,34.24,15.11,9.79,32.07,14.48,48.88,14.52v26.01c-19.45-.24-38.85-5.09-55.57-14.23-44.65-24.4-69.24-73.2-59.93-136.1,9.14-61.73,58.84-101.08,115.51-116.19Z"/>
</svg>